<svg xmlns="http://www.w3.org/2000/svg" width="146.907" height="161.71" viewBox="0 0 38.869 42.786"><g style="marker:none" color="#000" fill="#f0f" stroke-width="3" stroke-linecap="round" stroke-linejoin="round"><path d="M0 35.094V11.182l18.906-4.276v18.26z" fill="#353564" fill-rule="evenodd"/><path d="M18.906 25.165l19.963 4.3V8.756l-19.963-1.85z" fill="#e9e9ff" fill-rule="evenodd"/><path d="M0 35.094l23.812 7.692L38.87 29.464l-19.963-4.299z" fill="#4d4d9f" fill-rule="evenodd"/><path d="M0 11.182l23.812 3.312L38.87 8.757 18.906 6.906z" fill="#afafde" fill-rule="evenodd"/><path d="M23.812 42.786V14.494L38.87 8.757v20.707z" fill="#d7d7ff" fill-rule="evenodd"/><path d="M0 35.094l23.812 7.692V14.494L0 11.182z" fill="#8686bf" fill-rule="evenodd"/><path d="M17.324 12.129l9.374-3.372-1.198-.111-9.913 3.291z" fill="#000" fill-rule="evenodd"/><g style="line-height:125%;-inkscape-font-specification:'Open Sans Condensed, Bold Condensed';font-variant-ligatures:normal;font-variant-caps:normal;font-variant-numeric:normal;font-feature-settings:normal;text-align:start"><path d="M4.402 24.07l2.336.37-.621 3.92q-1.06.265-2.179.088-1.332-.212-1.893-1.34-.555-1.127-.252-3.035.291-1.84 1.277-2.75.99-.908 2.47-.674.914.145 1.67.747l-.633 1.09q-.589-.48-1.153-.57-.81-.128-1.4.523-.586.647-.784 1.896-.203 1.286.028 2.024.236.74.89.843.344.055.714.022l.277-1.75-.946-.15zm3.676 4.927l-.597-6.063 1.442.228.208 3.489q.01.243 0 .707-.003.46-.019.662l.02.003q.03-.156.114-.443.088-.286.169-.525.08-.239 1.395-3.593l1.442.228-2.449 5.58zm8.612-1.63q-.228 1.432-.96 2.136-.733.698-1.789.53-.669-.106-1.123-.553-.454-.447-.622-1.175-.168-.734-.022-1.654.224-1.416.951-2.115.728-.704 1.794-.535 1.03.163 1.507 1.074.483.907.263 2.292zm-3.095-.49q-.144.909-.019 1.406.125.496.564.566.836.132 1.128-1.707.145-.915.012-1.397-.126-.486-.56-.554-.44-.07-.71.353-.27.418-.415 1.333zm6.039 3.952l-1.417-.225 1.014-6.391-1.464-.232.198-1.25 4.343.69-.198 1.248-1.463-.232z" style="-inkscape-font-specification:'Open Sans Condensed, Bold Condensed';font-variant-ligatures:normal;font-variant-caps:normal;font-variant-numeric:normal;font-feature-settings:normal;text-align:start" aria-label="GvoT" font-weight="700" font-stretch="condensed" font-size="9.151" font-family="Open Sans Condensed" letter-spacing="0" word-spacing="0" fill="#fff"/></g><path style="marker:none" overflow="visible" fill="#e5ffd5" d="M16.072 0l9.608 7.189-4.793 6.406-9.608-7.19z"/><path style="marker:none" d="M19.678 5.196l.604 4.2.605 4.199L16.083 10 11.28 6.405l4.2-.604z" overflow="visible" fill="#cfa"/><path d="M17.281 8.399l4.2-.605 4.199-.605-4.804-3.594L16.072 0l.604 4.2z" style="marker:none" overflow="visible" fill="#b3ff80"/><path d="M20.887 13.595l7.009-4.727-1.198-.111-9.374 3.372z" fill="#afafde" fill-rule="evenodd"/></g></svg>